<mxfile host="Electron" modified="2024-10-18T15:22:23.195Z" agent="Mozilla/5.0 (Windows NT 10.0; Win64; x64) AppleWebKit/537.36 (KHTML, like Gecko) draw.io/22.0.3 Chrome/114.0.5735.289 Electron/25.8.4 Safari/537.36" etag="K1_rWfEKcnp11QwtbApe" version="22.0.3" type="device">
  <diagram name="Страница — 1" id="SVyj_t6931FATLPXebwM">
    <mxGraphModel dx="1510" dy="421" grid="1" gridSize="10" guides="1" tooltips="1" connect="1" arrows="1" fold="1" page="1" pageScale="1" pageWidth="827" pageHeight="1169" math="0" shadow="0">
      <root>
        <mxCell id="0" />
        <mxCell id="1" parent="0" />
        <mxCell id="JWVDpnZE2c4Ya6U8eaL7-10" value="&lt;div style=&quot;text-align: justify;&quot;&gt;&lt;span style=&quot;font-size: 7px; background-color: initial;&quot;&gt;Trigger: Пользователь&amp;nbsp; вышел из приложения&lt;br&gt;&lt;/span&gt;&lt;/div&gt;" style="shape=note;whiteSpace=wrap;html=1;backgroundOutline=1;darkOpacity=0.05;strokeColor=default;align=center;verticalAlign=middle;fontFamily=Helvetica;fontSize=12;fontColor=default;fillColor=default;size=10;" parent="1" vertex="1">
          <mxGeometry x="-490" y="200" width="120" height="40" as="geometry" />
        </mxCell>
        <mxCell id="JWVDpnZE2c4Ya6U8eaL7-12" value="" style="endArrow=none;dashed=1;html=1;rounded=0;fontFamily=Helvetica;fontSize=12;fontColor=default;entryX=0.5;entryY=1;entryDx=0;entryDy=0;entryPerimeter=0;" parent="1" target="JWVDpnZE2c4Ya6U8eaL7-10" edge="1">
          <mxGeometry width="50" height="50" relative="1" as="geometry">
            <mxPoint x="-340" y="280" as="sourcePoint" />
            <mxPoint x="-470" y="280" as="targetPoint" />
          </mxGeometry>
        </mxCell>
        <mxCell id="JWVDpnZE2c4Ya6U8eaL7-16" value="&lt;div style=&quot;text-align: justify;&quot;&gt;&lt;span style=&quot;font-size: 7px; background-color: initial;&quot;&gt;Trigger: Пользователь решил создать или войти в профиль&lt;/span&gt;&lt;/div&gt;&lt;span style=&quot;font-size: 7px;&quot;&gt;&lt;div style=&quot;text-align: justify;&quot;&gt;&lt;span style=&quot;background-color: initial;&quot;&gt;Condition: Корректный ввод данныйх аккаунта (Логин, Пароль, Частота радиосвязи)&lt;/span&gt;&lt;/div&gt;&lt;/span&gt;" style="shape=note;whiteSpace=wrap;html=1;backgroundOutline=1;darkOpacity=0.05;strokeColor=default;align=center;verticalAlign=middle;fontFamily=Helvetica;fontSize=12;fontColor=default;fillColor=default;size=10;" parent="1" vertex="1">
          <mxGeometry x="-160" y="160" width="120" height="70" as="geometry" />
        </mxCell>
        <mxCell id="JWVDpnZE2c4Ya6U8eaL7-17" value="" style="endArrow=none;dashed=1;html=1;rounded=0;fontFamily=Helvetica;fontSize=12;fontColor=default;entryX=0.5;entryY=1;entryDx=0;entryDy=0;entryPerimeter=0;" parent="1" target="JWVDpnZE2c4Ya6U8eaL7-16" edge="1">
          <mxGeometry width="50" height="50" relative="1" as="geometry">
            <mxPoint x="-120" y="260" as="sourcePoint" />
            <mxPoint x="-200" y="193" as="targetPoint" />
          </mxGeometry>
        </mxCell>
        <mxCell id="JWVDpnZE2c4Ya6U8eaL7-19" value="&lt;span style=&quot;font-size: 7px;&quot;&gt;Пользователь отменил&amp;nbsp; создание или вход в профиль&lt;/span&gt;" style="shape=note;whiteSpace=wrap;html=1;backgroundOutline=1;darkOpacity=0.05;strokeColor=default;align=center;verticalAlign=middle;fontFamily=Helvetica;fontSize=12;fontColor=default;fillColor=default;size=10;" parent="1" vertex="1">
          <mxGeometry x="-310" y="320" width="120" height="40" as="geometry" />
        </mxCell>
        <mxCell id="JWVDpnZE2c4Ya6U8eaL7-20" value="" style="endArrow=none;dashed=1;html=1;rounded=0;fontFamily=Helvetica;fontSize=12;fontColor=default;entryX=0.5;entryY=1;entryDx=0;entryDy=0;entryPerimeter=0;" parent="1" target="JWVDpnZE2c4Ya6U8eaL7-19" edge="1">
          <mxGeometry width="50" height="50" relative="1" as="geometry">
            <mxPoint x="-250" y="380" as="sourcePoint" />
            <mxPoint x="-300" y="350" as="targetPoint" />
          </mxGeometry>
        </mxCell>
        <mxCell id="JWVDpnZE2c4Ya6U8eaL7-23" value="&lt;div style=&quot;text-align: justify; font-size: 7px;&quot;&gt;Trigger: Пользователь ввел существующие логин или пароль или создал новый аккаунт&lt;br&gt;&lt;span style=&quot;&quot;&gt;Condition: Корректный ввод данныйх аккаунта (Логин, Пароль, Частота радиосвязи)&lt;/span&gt;&lt;/div&gt;" style="shape=note;whiteSpace=wrap;html=1;backgroundOutline=1;darkOpacity=0.05;strokeColor=default;align=center;verticalAlign=middle;fontFamily=Helvetica;fontSize=12;fontColor=default;fillColor=default;size=10;" parent="1" vertex="1">
          <mxGeometry x="-20" y="210" width="120" height="70" as="geometry" />
        </mxCell>
        <mxCell id="JWVDpnZE2c4Ya6U8eaL7-24" value="" style="endArrow=none;dashed=1;html=1;rounded=0;fontFamily=Helvetica;fontSize=12;fontColor=default;entryX=0.5;entryY=1;entryDx=0;entryDy=0;entryPerimeter=0;" parent="1" target="JWVDpnZE2c4Ya6U8eaL7-23" edge="1">
          <mxGeometry width="50" height="50" relative="1" as="geometry">
            <mxPoint x="20" y="340" as="sourcePoint" />
            <mxPoint x="-60" y="273" as="targetPoint" />
          </mxGeometry>
        </mxCell>
        <mxCell id="JWVDpnZE2c4Ya6U8eaL7-26" value="&lt;font style=&quot;font-size: 7px;&quot;&gt;Пользователь&amp;nbsp; вышел из приложения&lt;/font&gt;" style="shape=note;whiteSpace=wrap;html=1;backgroundOutline=1;darkOpacity=0.05;strokeColor=default;align=center;verticalAlign=middle;fontFamily=Helvetica;fontSize=12;fontColor=default;fillColor=default;size=10;" parent="1" vertex="1">
          <mxGeometry x="-310" y="440" width="120" height="40" as="geometry" />
        </mxCell>
        <mxCell id="JWVDpnZE2c4Ya6U8eaL7-27" value="" style="endArrow=none;dashed=1;html=1;rounded=0;fontFamily=Helvetica;fontSize=12;fontColor=default;entryX=0.5;entryY=0;entryDx=0;entryDy=0;entryPerimeter=0;" parent="1" target="JWVDpnZE2c4Ya6U8eaL7-26" edge="1">
          <mxGeometry width="50" height="50" relative="1" as="geometry">
            <mxPoint x="-200" y="420" as="sourcePoint" />
            <mxPoint x="-240" y="540" as="targetPoint" />
          </mxGeometry>
        </mxCell>
        <mxCell id="JWVDpnZE2c4Ya6U8eaL7-32" value="" style="ellipse;html=1;shape=endState;fillColor=#000000;strokeColor=#ff0000;align=center;verticalAlign=middle;fontFamily=Helvetica;fontSize=12;fontColor=default;" parent="1" vertex="1">
          <mxGeometry x="-190" y="520" width="40" height="40" as="geometry" />
        </mxCell>
        <mxCell id="JWVDpnZE2c4Ya6U8eaL7-33" value="" style="ellipse;html=1;shape=startState;fillColor=#000000;strokeColor=#ff0000;align=center;verticalAlign=middle;fontFamily=Helvetica;fontSize=12;fontColor=default;" parent="1" vertex="1">
          <mxGeometry x="-350" y="180" width="40" height="40" as="geometry" />
        </mxCell>
        <mxCell id="JWVDpnZE2c4Ya6U8eaL7-38" value="" style="edgeStyle=orthogonalEdgeStyle;html=1;verticalAlign=bottom;endArrow=open;endSize=8;strokeColor=#ff0000;rounded=0;fontFamily=Helvetica;fontSize=12;fontColor=default;exitX=0;exitY=0.5;exitDx=0;exitDy=0;entryX=0;entryY=0.5;entryDx=0;entryDy=0;" parent="1" source="JWVDpnZE2c4Ya6U8eaL7-39" target="JWVDpnZE2c4Ya6U8eaL7-32" edge="1">
          <mxGeometry relative="1" as="geometry">
            <mxPoint x="-380" y="320" as="targetPoint" />
            <Array as="points">
              <mxPoint x="-340" y="260" />
              <mxPoint x="-340" y="540" />
            </Array>
          </mxGeometry>
        </mxCell>
        <mxCell id="JWVDpnZE2c4Ya6U8eaL7-39" value="Отсутствие" style="rounded=1;whiteSpace=wrap;html=1;arcSize=40;fontColor=#000000;fillColor=#ffffc0;strokeColor=#ff0000;align=center;verticalAlign=middle;fontFamily=Helvetica;fontSize=12;" parent="1" vertex="1">
          <mxGeometry x="-310" y="240" width="120" height="40" as="geometry" />
        </mxCell>
        <mxCell id="JWVDpnZE2c4Ya6U8eaL7-40" value="&lt;div style=&quot;font-size: 7px;&quot;&gt;&lt;div style=&quot;text-align: center;&quot;&gt;&lt;span style=&quot;background-color: initial;&quot;&gt;В процессе создания/входа&lt;/span&gt;&lt;/div&gt;&lt;span style=&quot;background-color: initial;&quot;&gt;&lt;div style=&quot;text-align: justify;&quot;&gt;&lt;span style=&quot;background-color: initial;&quot;&gt;entry: Открывается окно входа/регистрации&lt;/span&gt;&lt;/div&gt;&lt;font style=&quot;font-size: 7px;&quot;&gt;&lt;div style=&quot;text-align: justify;&quot;&gt;&lt;span style=&quot;background-color: initial;&quot;&gt;do: Проверяется корректность ввода данных&lt;/span&gt;&lt;/div&gt;&lt;div style=&quot;text-align: justify;&quot;&gt;exit: Если данные некорректны, то уведомить об этом&lt;/div&gt;&lt;/font&gt;&lt;/span&gt;&lt;/div&gt;" style="rounded=1;whiteSpace=wrap;html=1;arcSize=40;fontColor=#000000;fillColor=#ffffc0;strokeColor=#ff0000;align=left;verticalAlign=middle;fontFamily=Helvetica;fontSize=12;rotation=0;" parent="1" vertex="1">
          <mxGeometry x="-180" y="300" width="120" height="60" as="geometry" />
        </mxCell>
        <mxCell id="JWVDpnZE2c4Ya6U8eaL7-41" value="&lt;div style=&quot;font-size: 7px;&quot;&gt;&lt;span style=&quot;background-color: initial;&quot;&gt;&lt;font style=&quot;font-size: 7px;&quot;&gt;Создан/ Успешный вход&lt;/font&gt;&lt;/span&gt;&lt;/div&gt;&lt;div style=&quot;text-align: justify; font-size: 7px;&quot;&gt;&lt;span style=&quot;background-color: initial;&quot;&gt;&lt;font style=&quot;font-size: 7px;&quot;&gt;&lt;font style=&quot;font-size: 7px;&quot;&gt;exit: Уведомление об успешном создании/входе&lt;/font&gt;&amp;nbsp;&lt;/font&gt;&lt;/span&gt;&lt;/div&gt;&lt;div style=&quot;text-align: justify; font-size: 7px;&quot;&gt;entry: Вход в профиль&lt;/div&gt;" style="rounded=1;whiteSpace=wrap;html=1;arcSize=40;fontColor=#000000;fillColor=#ffffc0;strokeColor=#ff0000;align=center;verticalAlign=middle;fontFamily=Helvetica;fontSize=12;" parent="1" vertex="1">
          <mxGeometry x="-40" y="400" width="120" height="50" as="geometry" />
        </mxCell>
        <mxCell id="JWVDpnZE2c4Ya6U8eaL7-43" value="" style="edgeStyle=orthogonalEdgeStyle;html=1;verticalAlign=bottom;endArrow=open;endSize=8;strokeColor=#ff0000;rounded=0;fontFamily=Helvetica;fontSize=12;fontColor=default;exitX=1;exitY=0.5;exitDx=0;exitDy=0;entryX=0.5;entryY=0;entryDx=0;entryDy=0;" parent="1" source="JWVDpnZE2c4Ya6U8eaL7-39" target="JWVDpnZE2c4Ya6U8eaL7-40" edge="1">
          <mxGeometry relative="1" as="geometry">
            <mxPoint x="-530" y="430" as="targetPoint" />
            <mxPoint x="-530" y="370" as="sourcePoint" />
          </mxGeometry>
        </mxCell>
        <mxCell id="JWVDpnZE2c4Ya6U8eaL7-44" value="" style="edgeStyle=orthogonalEdgeStyle;html=1;verticalAlign=bottom;endArrow=open;endSize=8;strokeColor=#ff0000;rounded=0;fontFamily=Helvetica;fontSize=12;fontColor=default;exitX=0.902;exitY=0.457;exitDx=0;exitDy=0;exitPerimeter=0;entryX=0.5;entryY=0;entryDx=0;entryDy=0;" parent="1" source="JWVDpnZE2c4Ya6U8eaL7-33" target="JWVDpnZE2c4Ya6U8eaL7-39" edge="1">
          <mxGeometry relative="1" as="geometry">
            <mxPoint x="-520" y="440" as="targetPoint" />
            <mxPoint x="-520" y="380" as="sourcePoint" />
            <Array as="points">
              <mxPoint x="-250" y="198" />
            </Array>
          </mxGeometry>
        </mxCell>
        <mxCell id="JWVDpnZE2c4Ya6U8eaL7-45" value="" style="edgeStyle=orthogonalEdgeStyle;html=1;verticalAlign=bottom;endArrow=open;endSize=8;strokeColor=#ff0000;rounded=0;fontFamily=Helvetica;fontSize=12;fontColor=default;exitX=1;exitY=0.5;exitDx=0;exitDy=0;entryX=0.5;entryY=0;entryDx=0;entryDy=0;" parent="1" source="JWVDpnZE2c4Ya6U8eaL7-40" target="JWVDpnZE2c4Ya6U8eaL7-41" edge="1">
          <mxGeometry relative="1" as="geometry">
            <mxPoint x="-510" y="450" as="targetPoint" />
            <mxPoint x="-510" y="390" as="sourcePoint" />
          </mxGeometry>
        </mxCell>
        <mxCell id="JWVDpnZE2c4Ya6U8eaL7-46" value="" style="edgeStyle=orthogonalEdgeStyle;html=1;verticalAlign=bottom;endArrow=open;endSize=8;strokeColor=#ff0000;rounded=0;fontFamily=Helvetica;fontSize=12;fontColor=default;exitX=0.5;exitY=1;exitDx=0;exitDy=0;entryX=0;entryY=0.5;entryDx=0;entryDy=0;" parent="1" source="JWVDpnZE2c4Ya6U8eaL7-40" target="JWVDpnZE2c4Ya6U8eaL7-32" edge="1">
          <mxGeometry relative="1" as="geometry">
            <mxPoint x="-380" y="360" as="targetPoint" />
            <mxPoint x="-500" y="400" as="sourcePoint" />
            <Array as="points">
              <mxPoint x="-120" y="380" />
              <mxPoint x="-340" y="380" />
              <mxPoint x="-340" y="540" />
            </Array>
          </mxGeometry>
        </mxCell>
        <mxCell id="JWVDpnZE2c4Ya6U8eaL7-47" value="" style="edgeStyle=orthogonalEdgeStyle;html=1;verticalAlign=bottom;endArrow=open;endSize=8;strokeColor=#ff0000;rounded=0;fontFamily=Helvetica;fontSize=12;fontColor=default;exitX=0;exitY=0.5;exitDx=0;exitDy=0;entryX=0;entryY=0.5;entryDx=0;entryDy=0;" parent="1" source="JWVDpnZE2c4Ya6U8eaL7-41" target="JWVDpnZE2c4Ya6U8eaL7-32" edge="1">
          <mxGeometry relative="1" as="geometry">
            <mxPoint x="-380" y="360" as="targetPoint" />
            <mxPoint x="-490" y="410" as="sourcePoint" />
            <Array as="points">
              <mxPoint x="-340" y="420" />
              <mxPoint x="-340" y="540" />
            </Array>
          </mxGeometry>
        </mxCell>
        <mxCell id="JWVDpnZE2c4Ya6U8eaL7-48" value="" style="edgeStyle=orthogonalEdgeStyle;html=1;verticalAlign=bottom;endArrow=open;endSize=8;strokeColor=#ff0000;rounded=0;fontFamily=Helvetica;fontSize=12;fontColor=default;exitX=0.5;exitY=1;exitDx=0;exitDy=0;entryX=1;entryY=0.5;entryDx=0;entryDy=0;" parent="1" source="JWVDpnZE2c4Ya6U8eaL7-41" target="JWVDpnZE2c4Ya6U8eaL7-32" edge="1">
          <mxGeometry relative="1" as="geometry">
            <mxPoint x="-480" y="480" as="targetPoint" />
            <mxPoint x="-480" y="420" as="sourcePoint" />
          </mxGeometry>
        </mxCell>
      </root>
    </mxGraphModel>
  </diagram>
</mxfile>
